<svg id="visual" viewBox="0 0 900 600" width="900" height="600" xmlns="http://www.w3.org/2000/svg" xmlns:xlink="http://www.w3.org/1999/xlink" version="1.1"><rect x="0" y="0" width="900" height="600" fill="#FFFFFF"></rect><defs><linearGradient id="grad1_0" x1="33.3%" y1="100%" x2="100%" y2="0%"><stop offset="20%" stop-color="#e8f6ef" stop-opacity="1"></stop><stop offset="80%" stop-color="#e8f6ef" stop-opacity="1"></stop></linearGradient></defs><defs><linearGradient id="grad1_1" x1="33.3%" y1="100%" x2="100%" y2="0%"><stop offset="20%" stop-color="#e8f6ef" stop-opacity="1"></stop><stop offset="80%" stop-color="#ffffff" stop-opacity="1"></stop></linearGradient></defs><defs><linearGradient id="grad2_0" x1="0%" y1="100%" x2="66.7%" y2="0%"><stop offset="20%" stop-color="#e8f6ef" stop-opacity="1"></stop><stop offset="80%" stop-color="#e8f6ef" stop-opacity="1"></stop></linearGradient></defs><defs><linearGradient id="grad2_1" x1="0%" y1="100%" x2="66.7%" y2="0%"><stop offset="20%" stop-color="#ffffff" stop-opacity="1"></stop><stop offset="80%" stop-color="#e8f6ef" stop-opacity="1"></stop></linearGradient></defs><g transform="translate(900, 600)"><path d="M-486.7 0C-448.6 -56.7 -410.5 -113.4 -374.2 -155C-337.8 -196.6 -303.2 -223.1 -276.5 -276.5C-249.8 -329.9 -231 -410.2 -186.3 -449.7C-141.5 -489.2 -70.8 -488 0 -486.7L0 0Z" fill="#f4fbf7"></path><path d="M-243.4 0C-224.3 -28.3 -205.3 -56.7 -187.1 -77.5C-168.9 -98.3 -151.6 -111.5 -138.2 -138.2C-124.9 -164.9 -115.5 -205.1 -93.1 -224.8C-70.8 -244.6 -35.4 -244 0 -243.4L0 0Z" fill="#e8f6ef"></path></g><g transform="translate(0, 0)"><path d="M486.7 0C450.5 56.2 414.2 112.4 381.6 158C348.9 203.7 319.9 238.7 291.3 291.3C262.8 344 234.7 414.2 186.3 449.7C137.8 485.2 68.9 486 0 486.7L0 0Z" fill="#f4fbf7"></path><path d="M243.4 0C225.2 28.1 207.1 56.2 190.8 79C174.5 101.8 159.9 119.3 145.7 145.7C131.4 172 117.4 207.1 93.1 224.8C68.9 242.6 34.4 243 0 243.4L0 0Z" fill="#e8f6ef"></path></g></svg>